<mxfile host="app.diagrams.net" modified="2024-03-05T23:20:31.339Z" agent="Mozilla/5.0 (Windows NT 10.0; Win64; x64) AppleWebKit/537.36 (KHTML, like Gecko) Chrome/122.0.0.0 Safari/537.36" etag="6qerQ1RKECVSyp4tZ8gb" version="23.1.7" type="device" pages="3">
  <diagram name="CasoDeUso1" id="1SDgu5AA4eMQcDzwAEZM">
    <mxGraphModel dx="1050" dy="522" grid="1" gridSize="10" guides="1" tooltips="1" connect="1" arrows="1" fold="1" page="1" pageScale="1" pageWidth="827" pageHeight="1169" math="0" shadow="0">
      <root>
        <mxCell id="0" />
        <mxCell id="1" parent="0" />
        <mxCell id="-Fndh2iOoSX39I9HhqAA-12" value="" style="edgeStyle=orthogonalEdgeStyle;rounded=0;orthogonalLoop=1;jettySize=auto;html=1;entryX=0;entryY=0.5;entryDx=0;entryDy=0;fontFamily=Times New Roman;fontSize=14;" parent="1" source="-Fndh2iOoSX39I9HhqAA-1" target="-Fndh2iOoSX39I9HhqAA-13" edge="1">
          <mxGeometry relative="1" as="geometry">
            <mxPoint x="285" y="240" as="targetPoint" />
          </mxGeometry>
        </mxCell>
        <mxCell id="-Fndh2iOoSX39I9HhqAA-1" value="User" style="shape=umlActor;verticalLabelPosition=bottom;verticalAlign=top;html=1;outlineConnect=0;fontFamily=Times New Roman;fontSize=14;" parent="1" vertex="1">
          <mxGeometry x="110" y="160" width="30" height="60" as="geometry" />
        </mxCell>
        <mxCell id="-Fndh2iOoSX39I9HhqAA-13" value="Adicionar Tarefas" style="ellipse;whiteSpace=wrap;html=1;verticalAlign=middle;fontFamily=Times New Roman;fontSize=14;" parent="1" vertex="1">
          <mxGeometry x="260" y="165" width="130" height="50" as="geometry" />
        </mxCell>
      </root>
    </mxGraphModel>
  </diagram>
  <diagram id="NW4PNUWlTEmSrd_TvQ4n" name="CasoDeUso2">
    <mxGraphModel dx="1050" dy="522" grid="1" gridSize="10" guides="1" tooltips="1" connect="1" arrows="1" fold="1" page="1" pageScale="1" pageWidth="827" pageHeight="1169" math="0" shadow="0">
      <root>
        <mxCell id="0" />
        <mxCell id="1" parent="0" />
        <mxCell id="KQs5ly0oJmR-ZR9MIBeR-1" value="" style="edgeStyle=orthogonalEdgeStyle;rounded=0;orthogonalLoop=1;jettySize=auto;html=1;entryX=0;entryY=0.5;entryDx=0;entryDy=0;fontFamily=Times New Roman;fontSize=14;" parent="1" source="KQs5ly0oJmR-ZR9MIBeR-2" target="KQs5ly0oJmR-ZR9MIBeR-5" edge="1">
          <mxGeometry relative="1" as="geometry">
            <mxPoint x="180" y="180" as="targetPoint" />
            <Array as="points">
              <mxPoint x="240" y="150" />
            </Array>
          </mxGeometry>
        </mxCell>
        <mxCell id="KQs5ly0oJmR-ZR9MIBeR-2" value="User" style="shape=umlActor;verticalLabelPosition=bottom;verticalAlign=top;html=1;outlineConnect=0;fontFamily=Times New Roman;fontSize=14;" parent="1" vertex="1">
          <mxGeometry x="90" y="120" width="30" height="60" as="geometry" />
        </mxCell>
        <mxCell id="KQs5ly0oJmR-ZR9MIBeR-3" value="" style="edgeStyle=orthogonalEdgeStyle;rounded=0;orthogonalLoop=1;jettySize=auto;html=1;exitX=0.5;exitY=0;exitDx=0;exitDy=0;fontFamily=Times New Roman;fontSize=14;" parent="1" source="KQs5ly0oJmR-ZR9MIBeR-5" target="KQs5ly0oJmR-ZR9MIBeR-6" edge="1">
          <mxGeometry relative="1" as="geometry" />
        </mxCell>
        <mxCell id="KQs5ly0oJmR-ZR9MIBeR-4" value="" style="edgeStyle=orthogonalEdgeStyle;rounded=0;orthogonalLoop=1;jettySize=auto;html=1;entryX=0;entryY=0.5;entryDx=0;entryDy=0;exitX=0.5;exitY=1;exitDx=0;exitDy=0;fontFamily=Times New Roman;fontSize=14;" parent="1" source="KQs5ly0oJmR-ZR9MIBeR-5" target="KQs5ly0oJmR-ZR9MIBeR-7" edge="1">
          <mxGeometry relative="1" as="geometry" />
        </mxCell>
        <mxCell id="KQs5ly0oJmR-ZR9MIBeR-5" value="Listar Tarefas" style="ellipse;whiteSpace=wrap;html=1;verticalAlign=middle;fontFamily=Times New Roman;fontSize=14;" parent="1" vertex="1">
          <mxGeometry x="240" y="125" width="130" height="50" as="geometry" />
        </mxCell>
        <mxCell id="KQs5ly0oJmR-ZR9MIBeR-6" value="Setar tarefa como concluída" style="ellipse;whiteSpace=wrap;html=1;verticalAlign=middle;fontFamily=Times New Roman;fontSize=14;" parent="1" vertex="1">
          <mxGeometry x="394" y="80" width="130" height="50" as="geometry" />
        </mxCell>
        <mxCell id="KQs5ly0oJmR-ZR9MIBeR-7" value="Setar tarefa como pendente" style="ellipse;whiteSpace=wrap;html=1;verticalAlign=middle;fontFamily=Times New Roman;fontSize=14;" parent="1" vertex="1">
          <mxGeometry x="400" y="170" width="130" height="50" as="geometry" />
        </mxCell>
        <mxCell id="Fugb5-dToQ04vIuXMx_f-2" value="&amp;lt;&amp;lt;include&amp;gt;&amp;gt;" style="text;html=1;align=center;verticalAlign=middle;whiteSpace=wrap;rounded=0;fontFamily=Times New Roman;fontSize=14;" parent="1" vertex="1">
          <mxGeometry x="310" y="70" width="60" height="30" as="geometry" />
        </mxCell>
        <mxCell id="Fugb5-dToQ04vIuXMx_f-3" value="&amp;lt;&amp;lt;include&amp;gt;&amp;gt;" style="text;html=1;align=center;verticalAlign=middle;whiteSpace=wrap;rounded=0;fontFamily=Times New Roman;fontSize=14;" parent="1" vertex="1">
          <mxGeometry x="310" y="200" width="60" height="30" as="geometry" />
        </mxCell>
      </root>
    </mxGraphModel>
  </diagram>
  <diagram id="uMfb2jiXwY1Wo2rKVpAz" name="Protótipo">
    <mxGraphModel dx="1050" dy="522" grid="1" gridSize="10" guides="1" tooltips="1" connect="1" arrows="1" fold="1" page="1" pageScale="1" pageWidth="827" pageHeight="1169" math="0" shadow="0">
      <root>
        <mxCell id="0" />
        <mxCell id="1" parent="0" />
        <mxCell id="MJfbMrAQTBzrJyXRbpPH-2" value="Lista de Tarefas" style="text;html=1;align=center;verticalAlign=middle;whiteSpace=wrap;rounded=0;fontFamily=Times New Roman;fontSize=14;fontColor=#000000;" parent="1" vertex="1">
          <mxGeometry x="150" y="130" width="110" height="30" as="geometry" />
        </mxCell>
        <mxCell id="MJfbMrAQTBzrJyXRbpPH-3" value="" style="triangle;whiteSpace=wrap;html=1;rotation=90;fontFamily=Times New Roman;fontSize=14;fontColor=#FFFFFF;" parent="1" vertex="1">
          <mxGeometry x="140" y="137.5" width="10" height="15" as="geometry" />
        </mxCell>
        <mxCell id="MJfbMrAQTBzrJyXRbpPH-4" value="Tarefa 01" style="text;html=1;align=center;verticalAlign=middle;whiteSpace=wrap;rounded=0;fontFamily=Times New Roman;fontSize=14;fontColor=#000000;" parent="1" vertex="1">
          <mxGeometry x="190" y="160" width="60" height="30" as="geometry" />
        </mxCell>
        <mxCell id="MJfbMrAQTBzrJyXRbpPH-5" value="Tarefa 02" style="text;html=1;align=center;verticalAlign=middle;whiteSpace=wrap;rounded=0;fontFamily=Times New Roman;fontSize=14;fontColor=#000000;" parent="1" vertex="1">
          <mxGeometry x="190" y="190" width="60" height="30" as="geometry" />
        </mxCell>
        <mxCell id="MJfbMrAQTBzrJyXRbpPH-6" value="Tarefa 03" style="text;html=1;align=center;verticalAlign=middle;whiteSpace=wrap;rounded=0;fontFamily=Times New Roman;fontSize=14;fontColor=#000000;" parent="1" vertex="1">
          <mxGeometry x="190" y="220" width="60" height="30" as="geometry" />
        </mxCell>
        <mxCell id="MJfbMrAQTBzrJyXRbpPH-7" value="" style="ellipse;whiteSpace=wrap;html=1;aspect=fixed;fillColor=#ff0000;fontFamily=Times New Roman;fontSize=14;fontColor=#000000;" parent="1" vertex="1">
          <mxGeometry x="170" y="170" width="10" height="10" as="geometry" />
        </mxCell>
        <mxCell id="MJfbMrAQTBzrJyXRbpPH-8" value="" style="ellipse;whiteSpace=wrap;html=1;aspect=fixed;fillColor=#ff0000;fontFamily=Times New Roman;fontSize=14;fontColor=#000000;" parent="1" vertex="1">
          <mxGeometry x="170" y="200" width="10" height="10" as="geometry" />
        </mxCell>
        <mxCell id="MJfbMrAQTBzrJyXRbpPH-9" value="" style="ellipse;whiteSpace=wrap;html=1;aspect=fixed;fillColor=#009900;fontFamily=Times New Roman;fontSize=14;fontColor=#000000;" parent="1" vertex="1">
          <mxGeometry x="170" y="230" width="10" height="10" as="geometry" />
        </mxCell>
        <mxCell id="qFGTl7SxmLcYJLIZAlLB-11" value="" style="triangle;whiteSpace=wrap;html=1;rotation=0;fontFamily=Times New Roman;fontSize=14;fontColor=#000000;" vertex="1" parent="1">
          <mxGeometry x="150" y="167.5" width="10" height="15" as="geometry" />
        </mxCell>
        <mxCell id="qFGTl7SxmLcYJLIZAlLB-12" value="" style="triangle;whiteSpace=wrap;html=1;rotation=0;fontFamily=Times New Roman;fontSize=14;fontColor=#000000;" vertex="1" parent="1">
          <mxGeometry x="150" y="197.5" width="10" height="15" as="geometry" />
        </mxCell>
        <mxCell id="qFGTl7SxmLcYJLIZAlLB-13" value="" style="triangle;whiteSpace=wrap;html=1;rotation=0;fontFamily=Times New Roman;fontSize=14;fontColor=#000000;" vertex="1" parent="1">
          <mxGeometry x="150" y="227.5" width="10" height="15" as="geometry" />
        </mxCell>
        <mxCell id="qFGTl7SxmLcYJLIZAlLB-14" value="Lista de Tarefas" style="text;html=1;align=center;verticalAlign=middle;whiteSpace=wrap;rounded=0;fontFamily=Times New Roman;fontSize=14;fontColor=#000000;" vertex="1" parent="1">
          <mxGeometry x="430" y="130" width="110" height="30" as="geometry" />
        </mxCell>
        <mxCell id="qFGTl7SxmLcYJLIZAlLB-15" value="" style="triangle;whiteSpace=wrap;html=1;rotation=90;fontFamily=Times New Roman;fontSize=14;fontColor=#000000;" vertex="1" parent="1">
          <mxGeometry x="420" y="137.5" width="10" height="15" as="geometry" />
        </mxCell>
        <mxCell id="qFGTl7SxmLcYJLIZAlLB-16" value="Tarefa 01" style="text;html=1;align=center;verticalAlign=middle;whiteSpace=wrap;rounded=0;fontFamily=Times New Roman;fontSize=14;fontColor=#000000;" vertex="1" parent="1">
          <mxGeometry x="470" y="160" width="60" height="30" as="geometry" />
        </mxCell>
        <mxCell id="qFGTl7SxmLcYJLIZAlLB-19" value="" style="ellipse;whiteSpace=wrap;html=1;aspect=fixed;fillColor=#ff0000;fontFamily=Times New Roman;fontSize=14;fontColor=#000000;" vertex="1" parent="1">
          <mxGeometry x="450" y="170" width="10" height="10" as="geometry" />
        </mxCell>
        <mxCell id="qFGTl7SxmLcYJLIZAlLB-22" value="" style="triangle;whiteSpace=wrap;html=1;rotation=90;fontFamily=Times New Roman;fontSize=14;fontColor=#000000;" vertex="1" parent="1">
          <mxGeometry x="430" y="167.5" width="10" height="15" as="geometry" />
        </mxCell>
        <mxCell id="qFGTl7SxmLcYJLIZAlLB-25" value="Definir como pendente" style="text;html=1;align=center;verticalAlign=middle;whiteSpace=wrap;rounded=0;fontColor=#000000;" vertex="1" parent="1">
          <mxGeometry x="470" y="190" width="130" height="30" as="geometry" />
        </mxCell>
        <mxCell id="qFGTl7SxmLcYJLIZAlLB-26" value="Definir como concluída" style="text;html=1;align=center;verticalAlign=middle;whiteSpace=wrap;rounded=0;fontColor=#000000;" vertex="1" parent="1">
          <mxGeometry x="470" y="220" width="130" height="30" as="geometry" />
        </mxCell>
        <mxCell id="qFGTl7SxmLcYJLIZAlLB-27" value="" style="ellipse;whiteSpace=wrap;html=1;aspect=fixed;fillColor=#FFFFFF;fontFamily=Times New Roman;fontSize=14;fontColor=#000000;" vertex="1" parent="1">
          <mxGeometry x="450" y="200" width="10" height="10" as="geometry" />
        </mxCell>
        <mxCell id="qFGTl7SxmLcYJLIZAlLB-28" value="" style="ellipse;whiteSpace=wrap;html=1;aspect=fixed;fillColor=default;fontFamily=Times New Roman;fontSize=14;fontColor=#000000;" vertex="1" parent="1">
          <mxGeometry x="450" y="230" width="10" height="10" as="geometry" />
        </mxCell>
        <mxCell id="qFGTl7SxmLcYJLIZAlLB-37" value="Tarefa 02" style="text;html=1;align=center;verticalAlign=middle;whiteSpace=wrap;rounded=0;fontFamily=Times New Roman;fontSize=14;fontColor=#000000;" vertex="1" parent="1">
          <mxGeometry x="470" y="250" width="60" height="30" as="geometry" />
        </mxCell>
        <mxCell id="qFGTl7SxmLcYJLIZAlLB-38" value="" style="ellipse;whiteSpace=wrap;html=1;aspect=fixed;fontFamily=Times New Roman;fontSize=14;fillColor=#FF0000;fontColor=#000000;" vertex="1" parent="1">
          <mxGeometry x="450" y="260" width="10" height="10" as="geometry" />
        </mxCell>
        <mxCell id="qFGTl7SxmLcYJLIZAlLB-39" value="" style="triangle;whiteSpace=wrap;html=1;rotation=0;fontFamily=Times New Roman;fontSize=14;fontColor=#000000;" vertex="1" parent="1">
          <mxGeometry x="430" y="257.5" width="10" height="15" as="geometry" />
        </mxCell>
      </root>
    </mxGraphModel>
  </diagram>
</mxfile>
